<svg width="128" height="128" viewBox="0 0 128 128" fill="none" xmlns="http://www.w3.org/2000/svg">
<path d="M7.31334 44.0084C11.5842 25.8009 25.8009 11.5842 44.0084 7.31334C57.158 4.22889 70.8421 4.22889 83.9919 7.31334C102.199 11.5842 116.416 25.8009 120.687 44.0085C123.771 57.1581 123.771 70.8421 120.687 83.9919C116.416 102.199 102.199 116.416 83.9919 120.687C70.8421 123.771 57.1581 123.771 44.0085 120.687C25.8009 116.416 11.5842 102.199 7.31334 83.9919C4.22889 70.8421 4.22889 57.158 7.31334 44.0084Z" fill="white"/>
<path d="M7.23941 84.018L2.44643 85.1424L7.23941 84.018ZM7.23941 43.9824L2.44643 42.8581L7.23941 43.9824ZM120.761 43.9824L115.967 45.1067L120.761 43.9824ZM120.761 84.018L115.967 82.8936L120.761 84.018ZM84.018 120.761L82.8936 115.967L84.018 120.761ZM43.9824 120.761L45.1067 115.967L43.9824 120.761ZM43.9824 7.23941L45.1067 12.0324L43.9824 7.23941ZM84.018 7.23941L82.8936 12.0324L84.018 7.23941ZM36.7531 43.4478C34.8305 41.5252 31.7134 41.5252 29.7908 43.4478C27.8683 45.3703 27.8683 48.4875 29.7908 50.4101L36.7531 43.4478ZM40.1004 53.7574L36.6193 57.2384C38.5419 59.161 41.659 59.161 43.5816 57.2384L40.1004 53.7574ZM57.2384 43.5816C59.161 41.659 59.161 38.5419 57.2384 36.6193C55.3158 34.6967 52.1991 34.6967 50.2762 36.6193L57.2384 43.5816ZM70.8287 45.4201C68.1099 45.4201 65.9056 47.6242 65.9056 50.3432C65.9056 53.0623 68.1099 55.2665 70.8287 55.2665V45.4201ZM94.728 55.2665C97.4468 55.2665 99.6511 53.0623 99.6511 50.3432C99.6511 47.6242 97.4468 45.4201 94.728 45.4201V55.2665ZM36.7531 77.5904C34.8305 75.6678 31.7134 75.6678 29.7908 77.5904C27.8683 79.5124 27.8683 82.6297 29.7908 84.5523L36.7531 77.5904ZM40.1004 87.9L36.6193 91.381C38.5419 93.3036 41.659 93.3036 43.5816 91.381L40.1004 87.9ZM57.2384 77.7237C59.161 75.801 59.161 72.6844 57.2384 70.7618C55.3158 68.8391 52.1991 68.8391 50.2762 70.7618L57.2384 77.7237ZM70.8287 79.5623C68.1099 79.5623 65.9056 81.7665 65.9056 84.4854C65.9056 87.2042 68.1099 89.4084 70.8287 89.4084V79.5623ZM94.728 89.4084C97.4468 89.4084 99.6511 87.2042 99.6511 84.4854C99.6511 81.7665 97.4468 79.5623 94.728 79.5623V89.4084ZM12.0324 82.8936C9.1174 70.4664 9.1174 57.5338 12.0324 45.1067L2.44643 42.8581C-0.815476 56.7638 -0.815476 71.2363 2.44643 85.1424L12.0324 82.8936ZM115.967 45.1067C118.883 57.5338 118.883 70.4664 115.967 82.8936L125.554 85.1418C128.815 71.2363 128.815 56.7638 125.554 42.8581L115.967 45.1067ZM82.8936 115.967C70.4664 118.883 57.5338 118.883 45.1067 115.967L42.8581 125.554C56.7638 128.815 71.2363 128.815 85.1418 125.554L82.8936 115.967ZM45.1067 12.0324C57.5338 9.1174 70.4664 9.1174 82.8936 12.0324L85.1418 2.44643C71.2363 -0.815476 56.7638 -0.815476 42.8581 2.44643L45.1067 12.0324ZM45.1067 115.967C28.6957 112.118 15.8819 99.3045 12.0324 82.8936L2.44643 85.1424C7.14988 105.194 22.8064 120.851 42.8581 125.554L45.1067 115.967ZM85.1418 125.554C105.194 120.851 120.851 105.194 125.554 85.1418L115.967 82.8936C112.118 99.3045 99.3045 112.118 82.8936 115.967L85.1418 125.554ZM82.8936 12.0324C99.3045 15.8819 112.118 28.6957 115.967 45.1067L125.554 42.8581C120.851 22.8064 105.194 7.14988 85.1418 2.44643L82.8936 12.0324ZM42.8581 2.44643C22.8064 7.14988 7.14988 22.8064 2.44643 42.8581L12.0324 45.1067C15.8819 28.6957 28.6957 15.8819 45.1067 12.0324L42.8581 2.44643ZM29.7908 50.4101L36.6193 57.2384L43.5816 50.2762L36.7531 43.4478L29.7908 50.4101ZM43.5816 57.2384L57.2384 43.5816L50.2762 36.6193L36.6193 50.2762L43.5816 57.2384ZM70.8287 55.2665H94.728V45.4201H70.8287V55.2665ZM29.7908 84.5523L36.6193 91.381L43.5816 84.4184L36.7531 77.5904L29.7908 84.5523ZM43.5816 91.381L57.2384 77.7237L50.2762 70.7618L36.6193 84.4184L43.5816 91.381ZM70.8287 89.4084H94.728V79.5623H70.8287V89.4084Z" fill="#EA5959"/>
</svg>
